# xmcd
#
# Track frame offsets:
#	150
#	18005
#	39530
#	53550
#	73200
#	98392
#	114817
#	126562
#	150537
#	174282
#	196532
#
# Disc length: 2926 seconds
#
# Revision: 0
# Processed by: cddbd v1.4PL0 Copyright (c) Steve Scherf et al.
# Submitted via: EasyCDDAExtractor 4.5.2.1
#
DISCID=7a0b6c0b
DTITLE=Wanda Rouzan - It's what I do
DYEAR=1994
DGENRE=RnB
TTITLE0=All of me
TTITLE1=If you care
TTITLE2=Let the good times roll
TTITLE3=No more songs for me
TTITLE4=You were meant for me
TTITLE5=Take me as I am
TTITLE6=I know
TTITLE7=Crazy he calls me
TTITLE8=Proud Mary
TTITLE9=What a wondeful world
TTITLE10=Second line (it's your last chance to jam)
EXTD=
EXTT0=
EXTT1=
EXTT2=
EXTT3=
EXTT4=
EXTT5=
EXTT6=
EXTT7=
EXTT8=
EXTT9=
EXTT10=
PLAYORDER=
